<svg xmlns="http://www.w3.org/2000/svg" viewBox="0 0 100 100"><defs><style>.cls-1{fill:#4f6e5b;}</style></defs><title>Asset 5</title><g id="Layer_2" data-name="Layer 2"><g id="Layer_1-2" data-name="Layer 1"><circle class="cls-1" cx="50" cy="50" r="50"/><path d="M22,48.58,15.55,55a1.94,1.94,0,0,1-1.3.6A1.76,1.76,0,0,1,13,55l-6.4-6.4a2,2,0,0,1,0-2.7,2,2,0,0,1,2.7,0l3.1,3.1a38.28,38.28,0,0,1,38.3-38.2,1.9,1.9,0,0,1,1.9,1.9.75.75,0,0,1-.1.5,1.83,1.83,0,0,1-1.8,1.4h0a34.57,34.57,0,0,0-34.5,34.5h0l3.2-3.2a2,2,0,0,1,2.7,0A1.9,1.9,0,0,1,22,48.58ZM57.75,15h.4A1.75,1.75,0,0,0,60,13.5a1.88,1.88,0,1,0-2.2,1.5Zm13,6.08a2.1,2.1,0,0,0,1.1.4,1.76,1.76,0,0,0,1.5-.8,1.88,1.88,0,0,0-.4-2.6h0a1.88,1.88,0,0,0-2.6.4A1.72,1.72,0,0,0,70.75,21.08Zm6.7,5.4a2.11,2.11,0,0,0,1.3-.5,1.91,1.91,0,1,0-2.7-.1A2,2,0,0,0,77.45,26.48Zm5.9,11.6h0a1.92,1.92,0,0,0,1.8,1.3,1.27,1.27,0,0,0,.6-.1,1.9,1.9,0,1,0-2.4-1.2Zm-65.2,23a1.87,1.87,0,1,0-3.5,1.3,1.83,1.83,0,0,0,1.8,1.2,2,2,0,0,0,.7-.1A1.88,1.88,0,0,0,18.15,61.08ZM82,32.58a1.94,1.94,0,1,0-1.6-1A1.9,1.9,0,0,0,82,32.58Zm-17.4-15a1.88,1.88,0,0,0,.8.2,1.85,1.85,0,0,0,1.7-1.1,1.9,1.9,0,0,0-3.5-1.5A1.83,1.83,0,0,0,64.55,17.58Zm-27,63.5a1.9,1.9,0,1,0-1.5,3.5,1.92,1.92,0,0,0,2.4-1.1A1.68,1.68,0,0,0,37.55,81.08Zm6.9,2.22a1.88,1.88,0,1,0-.7,3.7h.3A1.92,1.92,0,0,0,46,85.4,1.86,1.86,0,0,0,44.45,83.3ZM23.05,73.08a1.9,1.9,0,0,0-.1,2.7,2,2,0,0,0,1.4.6,2.11,2.11,0,0,0,1.3-.5,1.82,1.82,0,0,0,0-2.7A1.7,1.7,0,0,0,23.05,73.08Zm-4.3-6.2a1.84,1.84,0,0,0-.6,2.6,1.89,1.89,0,0,0,3.2-2A1.84,1.84,0,0,0,18.75,66.88Zm12.5,10.8a1.87,1.87,0,1,0-2.1,3.1,2,2,0,0,0,1.1.3,2.09,2.09,0,0,0,1.6-.8A2.05,2.05,0,0,0,31.25,77.68Zm63.2-27.9-6.4-6.4a2,2,0,0,0-2.7,0L79,49.78a2,2,0,0,0,0,2.7,1.94,1.94,0,0,0,1.3.6,1.76,1.76,0,0,0,1.3-.6l3.2-3.2h0a34.57,34.57,0,0,1-34.5,34.5,1.9,1.9,0,0,0-1.9,1.9,1.84,1.84,0,0,0,1.9,1.9,38.28,38.28,0,0,0,38.3-38.2l3.1,3.1a1.94,1.94,0,0,0,1.3.6,1.76,1.76,0,0,0,1.3-.6A1.83,1.83,0,0,0,94.45,49.78Zm-39.8-2c-1.2-.7-2.4-1.1-3.7-1.7A7.81,7.81,0,0,1,49,45a1.73,1.73,0,0,1,.4-3.1,5.27,5.27,0,0,1,1.2-.3,9,9,0,0,1,4.6.9c.7.4,1,.2,1.2-.5a21.72,21.72,0,0,0,.7-2.4c.2-.5,0-.9-.6-1.1a14,14,0,0,0-2.9-.9c-1.3-.2-1.3-.2-1.3-1.5A2.08,2.08,0,0,0,50.35,34h-.8A3.46,3.46,0,0,0,48,35.28v1.2c.45,1.2.45,1.2-.65,1.6a6.41,6.41,0,0,0-4.6,5.8c-.2,2.6,1.2,4.4,3.4,5.7a31.74,31.74,0,0,0,4.2,1.9,3.88,3.88,0,0,1,1.5.9,2.1,2.1,0,0,1-.5,3.7,5.11,5.11,0,0,1-2.7.4,14.84,14.84,0,0,1-4.1-1.2c-.8-.4-1-.3-1.2.5s-.4,1.4-.6,2.2c-.3,1-.2,1.21.8,1.6a12.15,12.15,0,0,0,3.7,1.11A3.43,3.43,0,0,1,49,61.89v1.4s-.45.9.15.71h2.1c.6.29.9,0,.75-.61v-1.9a1.39,1.39,0,0,1,1-1.2,7.6,7.6,0,0,0,3.7-2.3A6.77,6.77,0,0,0,54.65,47.78Z"/></g></g></svg>