<svg xmlns="http://www.w3.org/2000/svg" viewBox="0 0 100 100"><defs><style>.cls-1{fill:#a63c3c;}.cls-2{fill:none;}.cls-3{fill-rule:evenodd;}</style></defs><title>Asset 7</title><g id="Layer_2" data-name="Layer 2"><g id="Layer_1-2" data-name="Layer 1"><circle class="cls-1" cx="50" cy="50" r="50"/><line class="cls-2" y1="51" x2="11" y2="59"/><path class="cls-3" d="M39.47,21.15c-2.13.11-2.78.65-3,3-.58,7.18-.93,17.17,2.43,23.86q-2.9.4-5.68,1c1.79-5.21,1.53-12,1.11-17.11C34.21,30,33.69,29.58,32,29.5a12,12,0,0,1-16.87,0c-1.7.08-2.22.52-2.37,2.41-.55,6.68-.83,16.4,3.48,21.48a5.85,5.85,0,0,1,1,1.73C2.56,64.18,3.68,78.82,20.55,87,37,95,63,95,79.45,87c16.87-8.2,18-22.84,3.36-31.9a5.85,5.85,0,0,1,1-1.73c4.31-5.08,4-14.8,3.48-21.48-.15-1.89-.67-2.33-2.37-2.41A12,12,0,0,1,68,29.5c-1.7.08-2.22.52-2.37,2.41C65.22,37,65,43.81,66.75,49c-1.85-.39-3.75-.73-5.68-1,3.36-6.69,3-16.68,2.43-23.86-.19-2.37-.84-2.91-3-3a15,15,0,0,1-21.06,0ZM18.67,62.31c.53,4.44.78,9.26,1.43,11.79.38,1.47,6.53,1.47,6.91,0,.92-3.56,1-11.65,2.26-16.83a65.6,65.6,0,0,1,13.29-2.61c1.81,6.36,1.91,17.47,3.12,22.19.48,1.84,8.16,1.84,8.64,0,1.21-4.72,1.31-15.83,3.12-22.19a65.6,65.6,0,0,1,13.29,2.61C72,62.45,72.07,70.54,73,74.1c.38,1.47,6.53,1.47,6.91,0,.65-2.53.9-7.35,1.43-11.79,8.15,5.86,6.64,12.9-4.51,18.32-14.69,7.14-38.95,7.14-53.64,0C12,75.21,10.52,68.17,18.67,62.31ZM23.56,15c3.82,0,6.92,3.36,6.92,7.49a7.22,7.22,0,0,1-6.92,7.49,7.22,7.22,0,0,1-6.93-7.49A7.23,7.23,0,0,1,23.56,15Zm52.89,0c3.82,0,6.92,3.36,6.92,7.49a6.95,6.95,0,1,1-13.85,0A7.23,7.23,0,0,1,76.45,15ZM50,3c4.78,0,8.65,4.19,8.65,9.35S54.78,21.71,50,21.71s-8.65-4.19-8.65-9.36S45.22,3,50,3Z"/></g></g></svg>