<svg xmlns="http://www.w3.org/2000/svg" viewBox="0 0 100 100"><defs><style>.cls-1{fill:#f2a057;}.cls-2{fill:none;stroke:#000;stroke-width:2px;}</style></defs><title>Asset 6</title><g id="Layer_2" data-name="Layer 2"><g id="Layer_1-2" data-name="Layer 1"><circle class="cls-1" cx="50" cy="50" r="50"/><path d="M44.19,35.07l4.05,5.44s1,1.75,0,2.29-2.81.08-3.22,1-4.82-7.53-4.82-7.53Z"/><path d="M49.36,25s-4.8-3.11-8-4.66S36.2,22.25,33.75,24a11.44,11.44,0,0,1-5.89,1.75V26L42.71,37.15l7.43-8.4C51.68,27,49.36,25,49.36,25ZM36.52,26.2A1.17,1.17,0,1,1,37.74,25,1.2,1.2,0,0,1,36.52,26.2ZM39,22.35a1.22,1.22,0,1,1,1.22,1.17A1.2,1.2,0,0,1,39,22.35Zm2.6,6.79A1.17,1.17,0,1,1,42.8,28,1.2,1.2,0,0,1,41.58,29.14Zm4.77-.26a1.17,1.17,0,1,1,1.21-1.17A1.19,1.19,0,0,1,46.35,28.88Z"/><path d="M24.51,60.53c-8-.48-14.54-5.13-16.65-11.18A15.33,15.33,0,0,0,31.21,59.91,21.68,21.68,0,0,1,24.51,60.53Z"/><path d="M26.14,25.7c-10.66,0-19.29,7.66-19.29,17.1,0,6.61,4.23,12.33,10.41,15.18a4,4,0,0,0,3.54-3.85,3.62,3.62,0,0,0-.29-1.43,11.59,11.59,0,0,1-7.1-10.37c0-6.45,5.91-11.69,13.19-11.69s13.19,5.24,13.19,11.69S33.89,54,26.6,54a14.5,14.5,0,0,1-4.79-.8,3.62,3.62,0,0,1,.34,1.54,4,4,0,0,1-3.39,3.83,21.24,21.24,0,0,0,7.38,1.3c10.65,0,19.29-7.66,19.29-17.1S36.79,25.7,26.14,25.7ZM17.33,52.62a1.6,1.6,0,1,1-1.67,1.6A1.64,1.64,0,0,1,17.33,52.62Z"/><path d="M59.61,45.65,54,49.36s-1.56,1.3-.78,2.16,2.62,1,2.69,2.06S63,48.15,63,48.15Z"/><path d="M56.49,37.78l4.14,10.45,17.76-5.41.07-.2A11.47,11.47,0,0,1,73.52,39c-1.72-2.49-2.33-6.39-5.89-6.05s-9.13,1.63-9.13,1.63S55.65,35.6,56.49,37.78Zm12.59.65a1.21,1.21,0,1,1,.75,1.51A1.19,1.19,0,0,1,69.08,38.43Zm-1.8-2.27a1.22,1.22,0,0,1-.76-1.52,1.23,1.23,0,1,1,.76,1.52Zm-4,3.29a1.18,1.18,0,0,1,1.54-.68,1.21,1.21,0,0,1,.75,1.51,1.22,1.22,0,0,1-2.29-.83Zm-4.4-1.88a1.22,1.22,0,1,1,.75,1.52A1.22,1.22,0,0,1,58.93,37.57Z"/><path d="M69.48,76.34c7.69,2.3,15.4.17,19.44-4.79A15.15,15.15,0,0,1,71.2,78.81a15.42,15.42,0,0,1-7.8-5.36A21.88,21.88,0,0,0,69.48,76.34Z"/><path d="M55.83,52.49c-3.2,8.87,2.32,19,12.34,22.7a21.38,21.38,0,0,0,7.37,1.32,4,4,0,0,1-1.89-4.78,3.68,3.68,0,0,1,.84-1.33,14.5,14.5,0,0,1-4.77-.89C62.87,67,59.09,60.05,61.28,54s9.52-9,16.37-6.46S88.27,57,86.09,63.05A11.56,11.56,0,0,1,75.9,70.36a3.54,3.54,0,0,0-.76,1.23,4,4,0,0,0,2,4.84c6.78-.55,12.69-4.49,14.93-10.69,3.2-8.88-2.32-19-12.33-22.7S59,43.61,55.83,52.49Zm24.11,21a1.62,1.62,0,0,1-2.11.93,1.64,1.64,0,0,1-1-2.07,1.62,1.62,0,0,1,2.1-.94A1.65,1.65,0,0,1,79.94,73.45Z"/><path class="cls-2" d="M54,16.46l-5.38.28a2.87,2.87,0,0,0-2.85,2.87,2.87,2.87,0,0,0,3.14,2.54l5.38-.29A2.87,2.87,0,0,0,57.17,19,2.86,2.86,0,0,0,54,16.46Z"/><path class="cls-2" d="M63.47,17.21l-4.21-3.38a2.84,2.84,0,0,0-4,.24,2.88,2.88,0,0,0,.66,4l4.22,3.38a2.83,2.83,0,0,0,4-.24A2.88,2.88,0,0,0,63.47,17.21Z"/><path class="cls-2" d="M61.35,23.26l-1.16,5.29a2.71,2.71,0,1,0,5.25,1.17l1.16-5.29a2.71,2.71,0,1,0-5.25-1.17Z"/></g></g></svg>