<svg id="Layer_1" data-name="Layer 1" xmlns="http://www.w3.org/2000/svg" viewBox="0 0 100 100"><defs><style>.cls-1{fill:#f2cf9b;}</style></defs><title>courts</title><circle class="cls-1" cx="50" cy="50" r="50"/><path d="M19,70.32a3.56,3.56,0,0,0,2.44.94,3.61,3.61,0,0,0,2.48-1L56.76,39.52l5.33,5A3.12,3.12,0,0,0,62.18,49l3.16,3a3.55,3.55,0,0,0,2.46,1h0a3.59,3.59,0,0,0,2.47-1L86.06,37.2a3.12,3.12,0,0,0,0-4.63l-3.16-3a3.67,3.67,0,0,0-4.82-.08L60.9,13.43a3.12,3.12,0,0,0-.09-4.52L57.66,6a3.67,3.67,0,0,0-4.95,0L36.93,20.74a3.14,3.14,0,0,0,0,4.63l3.16,3a3.57,3.57,0,0,0,2.47,1h0a3.63,3.63,0,0,0,2.35-.88l5.33,5L17.38,64.19a3.15,3.15,0,0,0,0,4.64Zm27.74-43L48.19,26l.05-.05L59.13,15.7,76.28,31.76,63.87,43.38Zm34.4,4.53,3.15,3a.86.86,0,0,1,0,1.28L68.49,50.87a1,1,0,0,1-.68.27h0a.94.94,0,0,1-.68-.27L64,47.92a.88.88,0,0,1,0-1.28l3.16-3,0,0L79.75,31.86A1,1,0,0,1,81.12,31.86ZM42.56,27.33a1,1,0,0,1-.68-.26l-3.15-3a.87.87,0,0,1,0-1.28L54.51,8.05a1,1,0,0,1,.68-.27,1,1,0,0,1,.68.27L59,11a.86.86,0,0,1,0,1.27l-.78.74h0L44.38,26l-.05.05-.29.27h0l-.79.74A1,1,0,0,1,42.56,27.33ZM19.17,66.44,52,35.66,55,38.41,22.12,69.19a1,1,0,0,1-1.35,0L19.15,67.7A.86.86,0,0,1,19.17,66.44Z" transform="translate(-2 -1)"/><path d="M85.92,61.9H57.53a15.21,15.21,0,0,1-2.35,1.78v4.15H53.29A1.23,1.23,0,0,0,52,69v6.54a1.23,1.23,0,0,0,1.27,1.19H88.73A1.22,1.22,0,0,0,90,75.54V69a1.23,1.23,0,0,0-1.27-1.17H86.83V63.68C87.18,63,86.61,62.5,85.92,61.9Zm-27.58,3H83.66v3H58.34ZM86.83,70.8v3H55.18v-3Z" transform="translate(-2 -1)"/></svg>